<mxfile host="app.diagrams.net" modified="2023-08-26T06:58:36.700Z" agent="Mozilla/5.0 (X11; Linux x86_64) AppleWebKit/537.36 (KHTML, like Gecko) Chrome/116.0.0.0 Safari/537.36" etag="QDBrtz9azTpskEHEuQkM" version="21.6.9" type="github">
  <diagram name="Page-1" id="GhU9vDB0ob8qFjlzjYEh">
    <mxGraphModel dx="1434" dy="771" grid="1" gridSize="10" guides="1" tooltips="1" connect="1" arrows="1" fold="1" page="1" pageScale="1" pageWidth="850" pageHeight="1100" math="0" shadow="0">
      <root>
        <mxCell id="0" />
        <mxCell id="1" parent="0" />
        <mxCell id="mPQEaO69_Ep9jG9V3_9A-16" style="edgeStyle=orthogonalEdgeStyle;rounded=0;orthogonalLoop=1;jettySize=auto;html=1;exitX=1;exitY=0.5;exitDx=0;exitDy=0;entryX=0;entryY=0.5;entryDx=0;entryDy=0;" parent="1" source="mPQEaO69_Ep9jG9V3_9A-2" target="mPQEaO69_Ep9jG9V3_9A-6" edge="1">
          <mxGeometry relative="1" as="geometry" />
        </mxCell>
        <mxCell id="mPQEaO69_Ep9jG9V3_9A-2" value="next" style="rounded=0;whiteSpace=wrap;html=1;" parent="1" vertex="1">
          <mxGeometry x="140" y="181" width="110" height="60" as="geometry" />
        </mxCell>
        <mxCell id="mPQEaO69_Ep9jG9V3_9A-4" value="data" style="rounded=0;whiteSpace=wrap;html=1;" parent="1" vertex="1">
          <mxGeometry x="140" y="121" width="110" height="60" as="geometry" />
        </mxCell>
        <mxCell id="mPQEaO69_Ep9jG9V3_9A-17" style="edgeStyle=orthogonalEdgeStyle;rounded=0;orthogonalLoop=1;jettySize=auto;html=1;exitX=1;exitY=0.5;exitDx=0;exitDy=0;entryX=0;entryY=0.5;entryDx=0;entryDy=0;" parent="1" source="mPQEaO69_Ep9jG9V3_9A-5" target="mPQEaO69_Ep9jG9V3_9A-8" edge="1">
          <mxGeometry relative="1" as="geometry" />
        </mxCell>
        <mxCell id="mPQEaO69_Ep9jG9V3_9A-5" value="next" style="rounded=0;whiteSpace=wrap;html=1;" parent="1" vertex="1">
          <mxGeometry x="330" y="181" width="110" height="60" as="geometry" />
        </mxCell>
        <mxCell id="mPQEaO69_Ep9jG9V3_9A-6" value="data" style="rounded=0;whiteSpace=wrap;html=1;" parent="1" vertex="1">
          <mxGeometry x="330" y="121" width="110" height="60" as="geometry" />
        </mxCell>
        <mxCell id="mPQEaO69_Ep9jG9V3_9A-9" style="edgeStyle=orthogonalEdgeStyle;rounded=0;orthogonalLoop=1;jettySize=auto;html=1;exitX=1;exitY=0.5;exitDx=0;exitDy=0;" parent="1" source="mPQEaO69_Ep9jG9V3_9A-7" target="mPQEaO69_Ep9jG9V3_9A-10" edge="1">
          <mxGeometry relative="1" as="geometry">
            <mxPoint x="700" y="211" as="targetPoint" />
          </mxGeometry>
        </mxCell>
        <mxCell id="mPQEaO69_Ep9jG9V3_9A-7" value="next" style="rounded=0;whiteSpace=wrap;html=1;" parent="1" vertex="1">
          <mxGeometry x="520" y="181" width="110" height="60" as="geometry" />
        </mxCell>
        <mxCell id="mPQEaO69_Ep9jG9V3_9A-8" value="data" style="rounded=0;whiteSpace=wrap;html=1;" parent="1" vertex="1">
          <mxGeometry x="520" y="121" width="110" height="60" as="geometry" />
        </mxCell>
        <mxCell id="mPQEaO69_Ep9jG9V3_9A-10" value="NULL" style="text;html=1;strokeColor=none;fillColor=none;align=center;verticalAlign=middle;whiteSpace=wrap;rounded=0;" parent="1" vertex="1">
          <mxGeometry x="670" y="196" width="60" height="30" as="geometry" />
        </mxCell>
        <mxCell id="mPQEaO69_Ep9jG9V3_9A-14" value="" style="endArrow=classic;html=1;rounded=0;exitX=0;exitY=0.5;exitDx=0;exitDy=0;" parent="1" source="mPQEaO69_Ep9jG9V3_9A-4" target="mPQEaO69_Ep9jG9V3_9A-15" edge="1">
          <mxGeometry width="50" height="50" relative="1" as="geometry">
            <mxPoint x="380" y="270" as="sourcePoint" />
            <mxPoint x="80" y="150" as="targetPoint" />
          </mxGeometry>
        </mxCell>
        <mxCell id="mPQEaO69_Ep9jG9V3_9A-15" value="Head" style="text;html=1;strokeColor=none;fillColor=none;align=center;verticalAlign=middle;whiteSpace=wrap;rounded=0;" parent="1" vertex="1">
          <mxGeometry x="50" y="135" width="60" height="30" as="geometry" />
        </mxCell>
        <mxCell id="mPQEaO69_Ep9jG9V3_9A-26" style="edgeStyle=orthogonalEdgeStyle;rounded=0;orthogonalLoop=1;jettySize=auto;html=1;exitX=0.5;exitY=1;exitDx=0;exitDy=0;" parent="1" source="mPQEaO69_Ep9jG9V3_9A-18" target="mPQEaO69_Ep9jG9V3_9A-21" edge="1">
          <mxGeometry relative="1" as="geometry" />
        </mxCell>
        <mxCell id="mPQEaO69_Ep9jG9V3_9A-46" style="edgeStyle=orthogonalEdgeStyle;rounded=0;orthogonalLoop=1;jettySize=auto;html=1;exitX=1;exitY=0.5;exitDx=0;exitDy=0;entryX=0;entryY=0.5;entryDx=0;entryDy=0;" parent="1" source="mPQEaO69_Ep9jG9V3_9A-18" target="mPQEaO69_Ep9jG9V3_9A-32" edge="1">
          <mxGeometry relative="1" as="geometry" />
        </mxCell>
        <mxCell id="mPQEaO69_Ep9jG9V3_9A-18" value="temp&lt;br&gt;==&lt;br&gt;null" style="rhombus;whiteSpace=wrap;html=1;" parent="1" vertex="1">
          <mxGeometry x="220" y="340" width="80" height="80" as="geometry" />
        </mxCell>
        <mxCell id="mPQEaO69_Ep9jG9V3_9A-52" style="edgeStyle=orthogonalEdgeStyle;rounded=0;orthogonalLoop=1;jettySize=auto;html=1;exitX=1;exitY=0.5;exitDx=0;exitDy=0;entryX=0;entryY=0.5;entryDx=0;entryDy=0;" parent="1" source="mPQEaO69_Ep9jG9V3_9A-19" target="mPQEaO69_Ep9jG9V3_9A-18" edge="1">
          <mxGeometry relative="1" as="geometry" />
        </mxCell>
        <mxCell id="mPQEaO69_Ep9jG9V3_9A-19" value="temp = head" style="rounded=0;whiteSpace=wrap;html=1;" parent="1" vertex="1">
          <mxGeometry x="70" y="350" width="120" height="60" as="geometry" />
        </mxCell>
        <mxCell id="mPQEaO69_Ep9jG9V3_9A-31" style="edgeStyle=orthogonalEdgeStyle;rounded=0;orthogonalLoop=1;jettySize=auto;html=1;exitX=0.5;exitY=1;exitDx=0;exitDy=0;entryX=0.5;entryY=0;entryDx=0;entryDy=0;" parent="1" source="mPQEaO69_Ep9jG9V3_9A-21" edge="1">
          <mxGeometry relative="1" as="geometry">
            <mxPoint x="260" y="530.0000000000001" as="targetPoint" />
          </mxGeometry>
        </mxCell>
        <mxCell id="mPQEaO69_Ep9jG9V3_9A-21" value="create new node" style="rounded=0;whiteSpace=wrap;html=1;" parent="1" vertex="1">
          <mxGeometry x="200" y="460" width="120" height="30" as="geometry" />
        </mxCell>
        <mxCell id="mPQEaO69_Ep9jG9V3_9A-27" value="true" style="text;html=1;strokeColor=none;fillColor=none;align=center;verticalAlign=middle;whiteSpace=wrap;rounded=0;" parent="1" vertex="1">
          <mxGeometry x="213" y="426" width="60" height="30" as="geometry" />
        </mxCell>
        <mxCell id="mPQEaO69_Ep9jG9V3_9A-40" style="edgeStyle=orthogonalEdgeStyle;rounded=0;orthogonalLoop=1;jettySize=auto;html=1;exitX=0.5;exitY=1;exitDx=0;exitDy=0;entryX=0.5;entryY=0;entryDx=0;entryDy=0;" parent="1" source="mPQEaO69_Ep9jG9V3_9A-32" target="mPQEaO69_Ep9jG9V3_9A-34" edge="1">
          <mxGeometry relative="1" as="geometry" />
        </mxCell>
        <mxCell id="mPQEaO69_Ep9jG9V3_9A-44" style="edgeStyle=orthogonalEdgeStyle;rounded=0;orthogonalLoop=1;jettySize=auto;html=1;exitX=1;exitY=0.5;exitDx=0;exitDy=0;entryX=0;entryY=0.5;entryDx=0;entryDy=0;" parent="1" source="mPQEaO69_Ep9jG9V3_9A-32" target="mPQEaO69_Ep9jG9V3_9A-37" edge="1">
          <mxGeometry relative="1" as="geometry" />
        </mxCell>
        <mxCell id="mPQEaO69_Ep9jG9V3_9A-32" value="temp.next&lt;br&gt;== null" style="rhombus;whiteSpace=wrap;html=1;" parent="1" vertex="1">
          <mxGeometry x="360" y="340" width="80" height="80" as="geometry" />
        </mxCell>
        <mxCell id="mPQEaO69_Ep9jG9V3_9A-33" value="head = new node" style="rounded=0;whiteSpace=wrap;html=1;" parent="1" vertex="1">
          <mxGeometry x="190" y="530" width="140" height="30" as="geometry" />
        </mxCell>
        <mxCell id="mPQEaO69_Ep9jG9V3_9A-43" style="edgeStyle=orthogonalEdgeStyle;rounded=0;orthogonalLoop=1;jettySize=auto;html=1;exitX=0.5;exitY=1;exitDx=0;exitDy=0;entryX=0.454;entryY=-0.061;entryDx=0;entryDy=0;entryPerimeter=0;" parent="1" source="mPQEaO69_Ep9jG9V3_9A-34" target="mPQEaO69_Ep9jG9V3_9A-36" edge="1">
          <mxGeometry relative="1" as="geometry" />
        </mxCell>
        <mxCell id="mPQEaO69_Ep9jG9V3_9A-34" value="create new node" style="rounded=0;whiteSpace=wrap;html=1;" parent="1" vertex="1">
          <mxGeometry x="340" y="460" width="120" height="30" as="geometry" />
        </mxCell>
        <mxCell id="mPQEaO69_Ep9jG9V3_9A-36" value="temp.next = new node" style="rounded=0;whiteSpace=wrap;html=1;" parent="1" vertex="1">
          <mxGeometry x="340" y="530" width="140" height="30" as="geometry" />
        </mxCell>
        <mxCell id="mPQEaO69_Ep9jG9V3_9A-50" style="edgeStyle=orthogonalEdgeStyle;rounded=0;orthogonalLoop=1;jettySize=auto;html=1;exitX=0.5;exitY=0;exitDx=0;exitDy=0;entryX=0.5;entryY=0;entryDx=0;entryDy=0;" parent="1" source="mPQEaO69_Ep9jG9V3_9A-37" target="mPQEaO69_Ep9jG9V3_9A-32" edge="1">
          <mxGeometry relative="1" as="geometry">
            <Array as="points">
              <mxPoint x="560" y="310" />
              <mxPoint x="400" y="310" />
            </Array>
          </mxGeometry>
        </mxCell>
        <mxCell id="mPQEaO69_Ep9jG9V3_9A-37" value="temp = temp.next" style="rounded=0;whiteSpace=wrap;html=1;" parent="1" vertex="1">
          <mxGeometry x="500" y="360" width="120" height="40" as="geometry" />
        </mxCell>
        <mxCell id="mPQEaO69_Ep9jG9V3_9A-47" value="false" style="text;html=1;strokeColor=none;fillColor=none;align=center;verticalAlign=middle;whiteSpace=wrap;rounded=0;" parent="1" vertex="1">
          <mxGeometry x="300" y="350" width="60" height="30" as="geometry" />
        </mxCell>
        <mxCell id="mPQEaO69_Ep9jG9V3_9A-48" value="false" style="text;html=1;strokeColor=none;fillColor=none;align=center;verticalAlign=middle;whiteSpace=wrap;rounded=0;" parent="1" vertex="1">
          <mxGeometry x="436" y="353" width="60" height="30" as="geometry" />
        </mxCell>
        <mxCell id="mPQEaO69_Ep9jG9V3_9A-51" value="true" style="text;html=1;strokeColor=none;fillColor=none;align=center;verticalAlign=middle;whiteSpace=wrap;rounded=0;" parent="1" vertex="1">
          <mxGeometry x="355" y="426" width="60" height="30" as="geometry" />
        </mxCell>
      </root>
    </mxGraphModel>
  </diagram>
</mxfile>
